HIERARCHY
ROOT Hips
{
	OFFSET 0.000000 0.000000 0.000000
	CHANNELS 6 Xposition Yposition Zposition Zrotation Yrotation Xrotation 
	JOINT LHipJoint
	{
		OFFSET 0.000000 0.000000 0.000000
		CHANNELS 3 Zrotation Yrotation Xrotation
		JOINT LeftUpLeg
		{
			OFFSET 1.363060 -1.794630 0.839290
			CHANNELS 3 Zrotation Yrotation Xrotation
			JOINT LeftLeg
			{
				OFFSET 2.448110 -6.726130 0.000000
				CHANNELS 3 Zrotation Yrotation Xrotation
				JOINT LeftFoot
				{
					OFFSET 2.562200 -7.039590 0.000000
					CHANNELS 3 Zrotation Yrotation Xrotation
					JOINT LeftToeBase
					{
						OFFSET 0.157640 -0.433110 2.322550
						CHANNELS 3 Zrotation Yrotation Xrotation
						End Site
						{
							OFFSET 0.000000 0.000000 0.000000
						}
					}
				}
			}
		}
	}
	JOINT RHipJoint
	{
		OFFSET 0.000000 0.000000 0.000000
		CHANNELS 3 Zrotation Yrotation Xrotation
		JOINT RightUpLeg
		{
			OFFSET -1.305520 -1.794630 0.839290
			CHANNELS 3 Zrotation Yrotation Xrotation
			JOINT RightLeg
			{
				OFFSET -2.542530 -6.985550 0.000000
				CHANNELS 3 Zrotation Yrotation Xrotation
				JOINT RightFoot
				{
					OFFSET -2.568260 -7.056230 0.000000
					CHANNELS 3 Zrotation Yrotation Xrotation
					JOINT RightToeBase
					{
						OFFSET -0.164730 -0.452590 2.363150
						CHANNELS 3 Zrotation Yrotation Xrotation
						End Site
						{
							OFFSET 0.000000 0.000000 0.000000
						}
					}
				}
			}
		}
	}
	JOINT LowerBack
	{
		OFFSET 0.000000 0.000000 0.000000
		CHANNELS 3 Zrotation Yrotation Xrotation
		JOINT Spine
		{
			OFFSET 0.028270 2.035590 -0.193380
			CHANNELS 3 Zrotation Yrotation Xrotation
			JOINT Spine1
			{
				OFFSET 0.056720 2.048850 -0.042750
				CHANNELS 3 Zrotation Yrotation Xrotation
				JOINT Neck
				{
					OFFSET 0.000000 0.000000 0.000000
					CHANNELS 3 Zrotation Yrotation Xrotation
					JOINT Neck1
					{
						OFFSET -0.054170 1.746240 0.172020
						CHANNELS 3 Zrotation Yrotation Xrotation
						JOINT Head
						{
							OFFSET 0.104070 1.761360 -0.123970
							CHANNELS 3 Zrotation Yrotation Xrotation
							End Site
							{
								OFFSET 0.000000 0.000000 0.000000
							}
						}
					}
				}
				JOINT LeftShoulder
				{
					OFFSET 0.000000 0.000000 0.000000
					CHANNELS 3 Zrotation Yrotation Xrotation
					JOINT LeftArm
					{
						OFFSET 3.362410 1.200890 -0.311210
						CHANNELS 3 Zrotation Yrotation Xrotation
						JOINT LeftForeArm
						{
							OFFSET 4.983000 -0.000000 -0.000000
							CHANNELS 3 Zrotation Yrotation Xrotation
							JOINT LeftHand
							{
								OFFSET 3.483560 -0.000000 -0.000000
								CHANNELS 3 Zrotation Yrotation Xrotation
								JOINT LeftFingerBase
								{
									OFFSET 0.000000 0.000000 0.000000
									CHANNELS 3 Zrotation Yrotation Xrotation
									JOINT LeftHandIndex1
									{
										OFFSET 0.715260 -0.000000 -0.000000
										CHANNELS 3 Zrotation Yrotation Xrotation
										End Site
										{
											OFFSET 0.000000 0.000000 0.000000
										}
									}
								}
								JOINT LThumb
								{
									OFFSET 0.000000 0.000000 0.000000
									CHANNELS 3 Zrotation Yrotation Xrotation
									End Site
									{
										OFFSET 0.000000 0.000000 0.000000
									}
								}
							}
						}
					}
				}
				JOINT RightShoulder
				{
					OFFSET 0.000000 0.000000 0.000000
					CHANNELS 3 Zrotation Yrotation Xrotation
					JOINT RightArm
					{
						OFFSET -3.136600 1.374050 -0.404650
						CHANNELS 3 Zrotation Yrotation Xrotation
						JOINT RightForeArm
						{
							OFFSET -5.241900 -0.000000 -0.000000
							CHANNELS 3 Zrotation Yrotation Xrotation
							JOINT RightHand
							{
								OFFSET -3.444170 -0.000000 -0.000000
								CHANNELS 3 Zrotation Yrotation Xrotation
								JOINT RightFingerBase
								{
									OFFSET 0.000000 0.000000 0.000000
									CHANNELS 3 Zrotation Yrotation Xrotation
									JOINT RightHandIndex1
									{
										OFFSET -0.622530 -0.000000 -0.000000
										CHANNELS 3 Zrotation Yrotation Xrotation
										End Site
										{
											OFFSET 0.000000 0.000000 0.000000
										}
									}
								}
								JOINT RThumb
								{
									OFFSET 0.000000 0.000000 0.000000
									CHANNELS 3 Zrotation Yrotation Xrotation
									End Site
									{
										OFFSET 0.000000 0.000000 0.000000
									}
								}
							}
						}
					}
				}
			}
		}
	}
}
MOTION
Frames: 10
Frame Time: 0.008333
10.701254 18.070446 19.630609 3.214129 11.964080 9.337323 -2.087034 4.056246 6.362746 -10.750784 8.545998 6.044079 -1.865960 3.808908 16.828143 1.603659 3.716951 32.449196 0.799428 -5.696295 -15.908528 -0.280763 1.538561 -4.810671 11.100991 4.841929 -38.139019 0.069236 -13.620867 31.390786 -0.111515 -5.432790 16.944122 -1.128193 6.743518 -18.958909 -2.462238 -5.979743 -4.663453 1.608723 -7.514626 -5.035999 5.775720 -4.865594 8.264501 -10.501792 -3.415569 -17.033136 5.597309 -2.359551 8.909000 6.056621 -1.553826 10.677181 -0.952097 -7.196877 -0.427508 -76.089947 -19.277261 44.787434 23.402485 -32.375670 -9.404503 -0.174641 1.289032 -11.595067 20.838062 -26.272955 -9.986541 -7.125000 0.000000 0.000000 -5.635092 0.818346 5.581624 0.482589 6.214781 0.483739 73.686939 -19.721021 10.626561 -6.214666 13.722851 -2.017116 3.690067 1.822325 0.024527 -27.598259 -18.626099 11.733636 7.125000 0.000000 0.000000 -2.995222 -53.014731 0.590859
10.690662 18.076422 19.775902 3.061856 11.846896 9.207353 -2.063498 3.956271 6.245454 -10.555679 8.721906 5.207404 -1.401781 4.697459 19.068484 1.464336 4.565191 33.110092 0.604833 -4.912662 -13.672205 -0.271294 1.520049 -4.720025 11.584166 4.611788 -38.065219 -0.059193 -13.771670 32.056767 -0.259668 -4.823027 16.752447 -0.996610 6.339595 -17.777521 -2.357309 -5.913258 -4.565614 1.616452 -7.449198 -5.037025 5.800078 -4.812231 8.192729 -10.460726 -3.368372 -16.948214 5.550671 -2.310643 8.919090 5.998025 -1.535708 10.649715 -0.938399 -7.185953 -0.437211 -76.235382 -18.802568 45.079076 23.393151 -32.410693 -9.389042 -0.201945 1.279020 -11.492737 21.116763 -26.075197 -10.078069 -7.125000 0.000000 0.000000 -5.427785 0.972090 5.359443 0.513143 6.236353 0.493387 73.616827 -19.515714 10.756009 -6.243917 13.735470 -2.025530 3.688956 1.825415 -0.017968 -27.540805 -18.657520 11.725157 7.125000 0.000000 0.000000 -2.929734 -53.038411 0.579869
10.678912 18.084712 19.919312 2.975154 11.752693 9.125864 -2.036931 3.850029 6.121402 -10.435036 8.844816 4.413578 -0.931185 5.549756 21.198156 1.298057 5.531861 33.781115 0.383422 -3.967903 -10.987541 -0.270530 1.506458 -4.633578 11.994436 4.373541 -38.013726 -0.185438 -13.912241 32.677535 -0.394042 -4.271479 16.592624 -0.845817 5.864324 -16.391768 -2.342135 -5.873734 -4.468936 1.627175 -7.414725 -5.048050 5.870212 -4.778754 8.099579 -10.451667 -3.329886 -16.899221 5.504389 -2.259116 8.953262 5.944574 -1.522080 10.663992 -0.923367 -7.177384 -0.456226 -76.392588 -18.300765 45.367291 23.363931 -32.429312 -9.361049 -0.218556 1.266698 -11.399345 21.241603 -25.859548 -10.076948 -7.125000 0.000000 0.000000 -5.314808 1.179283 5.226938 0.538766 6.258539 0.493325 73.489141 -19.385629 11.372036 -6.347920 13.857091 -2.057068 3.694906 1.854612 -0.557792 -27.708076 -18.653857 11.802029 7.125000 0.000000 0.000000 -3.133624 -53.059119 0.621815
10.664912 18.092252 20.061285 2.840108 11.660226 9.122911 -1.992898 3.729969 5.967459 -10.327031 8.903621 3.607550 -0.448481 6.319208 23.210397 1.136302 6.294683 34.035905 0.467144 -4.365970 -12.111346 -0.270936 1.503652 -4.550482 12.435002 4.176392 -37.968689 -0.273320 -14.006991 33.178734 -0.566946 -3.583819 16.318055 -0.811157 5.746719 -16.051559 -2.301954 -5.825857 -4.440329 1.645984 -7.368371 -5.048257 5.991197 -4.748887 8.167359 -10.495076 -3.400356 -17.124530 5.494146 -2.315884 8.963528 5.926202 -1.549686 10.772261 -0.908995 -7.162307 -0.484066 -76.685027 -18.015982 45.367376 23.199886 -32.323546 -9.264127 -0.170087 1.250815 -11.017156 20.591754 -25.712542 -9.674329 -7.125000 0.000000 0.000000 -5.704776 1.482276 5.581903 0.561674 6.286580 0.486706 73.382099 -19.067746 12.106837 -6.534372 14.067984 -2.116569 3.719527 1.885611 -1.379641 -28.210939 -18.585907 11.992888 7.125000 0.000000 0.000000 -3.736978 -53.051640 0.741033
10.651737 18.101763 20.203931 2.644324 11.575483 9.091200 -1.943762 3.620296 5.809588 -10.165877 8.932861 2.817404 0.054049 7.077244 25.205194 0.971292 7.102785 34.322546 0.554103 -4.766005 -13.242824 -0.259620 1.494109 -4.456807 12.930182 3.984351 -37.874061 -0.350421 -14.084517 33.638400 -0.726325 -2.931594 15.997826 -0.786923 5.662969 -15.809697 -2.184222 -5.762339 -4.401427 1.664355 -7.305510 -5.046898 6.076466 -4.705421 8.211984 -10.510930 -3.480177 -17.294436 5.484969 -2.400211 8.957282 5.900749 -1.586417 10.852568 -0.895301 -7.149727 -0.508041 -76.995224 -17.706524 45.364596 23.027797 -32.209349 -9.162592 -0.107360 1.229215 -10.608612 19.742020 -25.557837 -9.166227 -7.125000 0.000000 0.000000 -6.221689 1.835041 6.053447 0.584574 6.318829 0.485628 73.309353 -18.741802 12.675769 -6.686531 14.230849 -2.163940 3.743435 1.888542 -2.024636 -28.678157 -18.405778 12.091452 7.125000 0.000000 0.000000 -4.308236 -52.893345 0.835664
10.641163 18.116907 20.348647 2.283855 11.512235 8.968844 -1.882462 3.541543 5.644408 -9.853749 8.887008 2.073424 0.610790 7.813538 27.165631 0.796566 8.063622 34.750711 0.612036 -5.003817 -13.920096 -0.215207 1.464287 -4.332975 13.575087 3.801535 -37.639237 -0.402009 -14.119354 33.996266 -0.842877 -2.395977 15.563588 -0.777484 5.629695 -15.713651 -1.851634 -5.655905 -4.325085 1.680482 -7.197734 -5.042487 6.054990 -4.623277 8.171416 -10.442775 -3.572673 -17.274346 5.474286 -2.548472 8.907608 5.851016 -1.643643 10.842539 -0.883431 -7.144978 -0.520047 -77.338442 -17.300597 45.389757 22.849940 -32.086997 -9.056700 -0.012690 1.191990 -10.162066 18.427224 -25.372916 -8.411788 -7.125000 0.000000 0.000000 -7.032586 2.315738 6.791779 0.607787 6.362175 0.500942 73.330432 -18.416656 12.763640 -6.732000 14.247563 -2.173724 3.763003 1.812351 -2.137295 -29.003262 -17.918368 11.916352 7.125000 0.000000 0.000000 -4.739378 -52.314655 0.851534
10.629884 18.136236 20.489993 1.821251 11.485078 8.805252 -1.813805 3.479527 5.473935 -9.430129 8.818348 1.304569 1.214422 8.534963 29.109135 0.600684 9.156838 35.182695 0.628531 -5.072625 -14.115862 -0.156787 1.424467 -4.193766 14.298177 3.657330 -37.341957 -0.436098 -14.125975 34.265219 -0.906038 -2.036443 15.125661 -0.727676 5.444689 -15.182694 -1.415394 -5.566093 -4.200714 1.705098 -7.118884 -5.047658 6.031971 -4.545754 8.006154 -10.428921 -3.614693 -17.043938 5.504820 -2.629246 8.847923 5.860161 -1.675162 10.753179 -0.881869 -7.144378 -0.525781 -77.649727 -16.757225 45.498700 22.692570 -31.981151 -8.958642 0.050585 1.159784 -9.794415 17.500393 -25.151875 -7.863576 -7.125000 0.000000 0.000000 -7.595049 2.746261 7.286095 0.630602 6.415951 0.528817 73.314255 -18.144679 12.783522 -6.716005 14.189372 -2.160406 3.757758 1.741128 -2.061158 -28.953579 -17.503578 11.620550 7.125000 0.000000 0.000000 -4.731356 -51.768769 0.792894
10.618069 18.158756 20.628770 1.280771 11.485440 8.610217 -1.739539 3.430275 5.299428 -8.921496 8.732299 0.516747 1.853806 9.245051 31.039729 0.388671 10.350991 35.617591 0.613428 -5.012567 -13.944479 -0.087686 1.377025 -4.042832 15.080883 3.542566 -36.997055 -0.456844 -14.111082 34.466376 -0.928489 -1.811172 14.684921 -0.647088 5.143987 -14.320116 -0.900119 -5.488956 -4.039721 1.736188 -7.062089 -5.060137 6.007775 -4.471756 7.745811 -10.456470 -3.618225 -16.653164 5.566782 -2.658563 8.780605 5.914201 -1.687079 10.603330 -0.888165 -7.146941 -0.526733 -77.936661 -16.109052 45.671526 22.550820 -31.887890 -8.866559 0.089920 1.131407 -9.486921 16.869383 -24.903291 -7.472610 -7.125000 0.000000 0.000000 -7.968079 3.138524 7.594349 0.653113 6.477682 0.566270 73.269672 -17.913243 12.751564 -6.653145 14.074066 -2.129475 3.733593 1.673692 -1.841064 -28.618120 -17.144159 11.232711 7.125000 0.000000 0.000000 -4.388472 -51.247895 0.677439
10.599137 18.178543 20.764471 0.710745 11.537268 8.444944 -1.644857 3.378148 5.109756 -8.355710 8.648701 -0.335706 2.499826 9.895468 32.921266 0.181555 11.352831 35.757891 0.675367 -5.249099 -14.621693 -0.021407 1.331146 -3.890789 15.864468 3.520951 -36.618281 -0.451182 -14.066231 34.571742 -0.966240 -1.531919 14.092503 -0.642152 5.126495 -14.269750 -0.409856 -5.409657 -3.889278 1.769088 -6.997348 -5.076010 6.017495 -4.396848 7.481314 -10.517342 -3.612558 -16.280517 5.649852 -2.661553 8.720950 5.998657 -1.689681 10.468559 -0.894601 -7.155095 -0.523649 -78.147451 -15.540991 46.039919 22.366080 -31.740053 -8.738908 0.097148 1.116750 -9.332577 16.633869 -24.655582 -7.291620 -7.125000 0.000000 0.000000 -8.090890 3.443092 7.668078 0.660046 6.545717 0.593469 73.317219 -17.730289 12.949060 -6.708097 14.110459 -2.149139 3.715390 1.740236 -2.007396 -28.299090 -17.576732 11.366002 7.125000 0.000000 0.000000 -3.986816 -51.733459 0.657399
10.579868 18.198150 20.900208 0.165592 11.594136 8.288890 -1.545530 3.318973 4.915272 -7.821143 8.543914 -1.180043 3.139183 10.526334 34.785283 -0.041037 12.295116 35.740809 0.752556 -5.537894 -15.449964 0.043615 1.287358 -3.738589 16.614953 3.503270 -36.222815 -0.439772 -14.012441 34.649863 -1.013286 -1.230382 13.488232 -0.653895 5.171681 -14.399081 0.052702 -5.327572 -3.742083 1.799536 -6.925828 -5.091811 6.022685 -4.320311 7.233498 -10.558368 -3.613792 -15.958320 5.722996 -2.674794 8.668542 6.068275 -1.696307 10.359333 -0.898056 -7.165645 -0.521915 -78.343617 -15.012460 46.438534 22.164320 -31.571014 -8.599587 0.101238 1.104387 -9.200254 16.435778 -24.407005 -7.131598 -7.125000 0.000000 0.000000 -8.190744 3.738769 7.719590 0.663025 6.614532 0.614188 73.392235 -17.558055 13.226935 -6.806463 14.202727 -2.185611 3.699393 1.833678 -2.307236 -28.031878 -18.148225 11.610074 7.125000 0.000000 0.000000 -3.626434 -52.401956 0.660705
